# xmcd
#
# Track frame offsets: 
#        150
#        15667
#        33272
#        49727
#        63980
#        81947
#        98862
#        116270
#        130230
#        150357
#
# Disc length: 2221 seconds
#
# Revision: 5
# Processed by: cddbd v1.5.2PL0 Copyright (c) Steve Scherf et al.
# Submitted via: ExactAudioCopy v1.0b3
#
DISCID=7108ab0a
DTITLE=Blake Shelton - The Dreamer
DYEAR=2003
DGENRE=Country
TTITLE0=Heavy Liftin'
TTITLE1=The Baby
TTITLE2=Asphalt Cowboy
TTITLE3=In My Heaven
TTITLE4=The Dreamer
TTITLE5=My Neck of the Woods
TTITLE6=Underneath the Same Moon
TTITLE7=Georgia in a Jug
TTITLE8=Playboys of the Southwestern World
TTITLE9=Someday
EXTD=YEAR: 2003
EXTT0=
EXTT1=
EXTT2=
EXTT3=
EXTT4=
EXTT5=
EXTT6=
EXTT7=
EXTT8=
EXTT9=
PLAYORDER=
